HIERARCHY
	ROOT pelvis
	{
		OFFSET 0 0 0 
		CHANNELS 6 Xposition Yposition Zposition Zrotation Xrotation Yrotation
		JOINT lfemur_phantom
		{
			OFFSET 0 0.0899607 0 
			CHANNELS 3 Zrotation Xrotation Yrotation
			JOINT lfemur
			{
				OFFSET 0 0 -0.426035 
				CHANNELS 3 Zrotation Xrotation Yrotation
				JOINT ltibia
				{
					OFFSET 0 0 -0.409933 
					CHANNELS 3 Zrotation Xrotation Yrotation
					JOINT lfoot
					{
						OFFSET 0.105631 0 0.00135511 
						CHANNELS 3 Zrotation Xrotation Yrotation
						End Site
						{
							OFFSET 0.0352103 0 0.000451703
						}
					}
				}
			}
		}
		JOINT rfemur_phantom
		{
			OFFSET 0 -0.0899607 0 
			CHANNELS 3 Zrotation Xrotation Yrotation
			JOINT rfemur
			{
				OFFSET 0 0 -0.430137 
				CHANNELS 3 Zrotation Xrotation Yrotation
				JOINT rtibia
				{
					OFFSET 0 0 -0.390377 
					CHANNELS 3 Zrotation Xrotation Yrotation
					JOINT rfoot
					{
						OFFSET 0.106801 0 -0.00121178 
						CHANNELS 3 Zrotation Xrotation Yrotation
						End Site
						{
							OFFSET 0.0356003 0 -0.000403927
						}
					}
				}
			}
		}
		JOINT lowerback_phantom
		{
			OFFSET -0.05 0 0.107967 
			CHANNELS 3 Zrotation Xrotation Yrotation
			JOINT lowerback
			{
				OFFSET 0.0167886 0 0.161801 
				CHANNELS 3 Zrotation Xrotation Yrotation
				JOINT upperback
				{
					OFFSET 0 0 0 
					CHANNELS 3 Zrotation Xrotation Yrotation
					JOINT lclavicle_phantom
					{
						OFFSET 0 0 0.199349 
						CHANNELS 3 Zrotation Xrotation Yrotation
						JOINT lclavicle
						{
							OFFSET 0 0.164108 -0.0174105 
							CHANNELS 3 Zrotation Xrotation Yrotation
							JOINT lhumerus
							{
								OFFSET 0 0 -0.275026 
								CHANNELS 3 Zrotation Xrotation Yrotation
								JOINT lradius
								{
									OFFSET 0 0 -0.248775 
									CHANNELS 3 Zrotation Xrotation Yrotation
									End Site
									{
										OFFSET 0 0 -0.082925
									}
								}
							}
						}
					}
					JOINT rclavicle_phantom
					{
						OFFSET 0 0 0.199349 
						CHANNELS 3 Zrotation Xrotation Yrotation
						JOINT rclavicle
						{
							OFFSET 0 -0.165322 -0.0298984 
							CHANNELS 3 Zrotation Xrotation Yrotation
							JOINT rhumerus
							{
								OFFSET 0 0 -0.273337 
								CHANNELS 3 Zrotation Xrotation Yrotation
								JOINT rradius
								{
									OFFSET 0 0 -0.254845 
									CHANNELS 3 Zrotation Xrotation Yrotation
									End Site
									{
										OFFSET 0 0 -0.0849483
									}
								}
							}
						}
					}
					JOINT LowerNeck_phantom
					{
						OFFSET 0 0 0.199349 
						CHANNELS 3 Zrotation Xrotation Yrotation
						JOINT LowerNeck
						{
							OFFSET -0.0127292 -0.000602123 0.105365 
							CHANNELS 3 Zrotation Xrotation Yrotation
							End Site
							{
								OFFSET -0.00424307 -0.000200708 0.0351217
							}
						}
					}
				}
			}
		}
	}
MOTION
Frames:	9
Frame Time:	0.0166667
-0.0465739 0.894655 1.66533e-016 85.3775 -55.489 82.9361 16.5697 1.34418 -2.52447 23.5588 4.70935 10.6634 -4.00274 -10.8304 24.5747 -8.18453e-007 5.04588e-006 5.6388 -4.51506 -12.0169 -8.89142 -16.1471 -6.6236 21.7222 4.99828 7.67427 11.7785 -2.76206e-006 1.09369e-006 24.9754 1.75314 -0.993543 5.8909 4.97242 1.43365 3.40237 -0 0 -0 -12.6712 -8.50816 -1.90518 31.6049 31.0592 -19.3712 -1.19917 -1.63629 -126.244 -7.81874e-006 0.0287652 -16.2794 4.68823 0.0027976 -0.000227467 21.7398 -33.6587 -26.568 6.97213 10.11 -124.863 1.67134e-005 -2.62962 -9.52089 -5.00196 -1.3967 40.9688 11.4116 -16.5047 -75.9938 
-0.0457407 0.895226 0.001413 85.6134 -55.3621 83.1904 16.1792 1.51857 -2.3932 23.9318 4.56214 10.1609 -3.98295 -10.9425 24.8569 4.21588e-006 -3.69852e-006 5.79436 -4.37452 -11.8613 -8.74052 -16.6029 -6.76668 21.5623 4.84065 7.33072 11.4274 -1.76559e-007 -1.01339e-006 24.8742 1.81143 -1.12795 5.77498 5.04977 1.48513 3.30562 -0 0 -0 -12.77 -8.35608 -1.88647 32.4223 31.5686 -20.2626 -1.87088 -2.52374 -126.568 -7.47073e-006 0.0899488 -16.7506 4.7503 0.0396885 -0.00329866 21.4109 -33.7767 -26.8308 7.01115 10.0748 -125.108 1.30292e-005 -2.573 -9.58569 -5.51835 -0.701187 40.8533 11.45 -17.6312 -75.2706 
-0.0445806 0.895589 0.003257 85.7572 -55.2014 83.3969 15.8919 1.67474 -2.32747 24.1599 4.41587 9.73954 -3.9627 -11.0489 25.1271 2.09076e-005 -2.37364e-006 5.93459 -4.27783 -11.7297 -8.58425 -17.184 -6.91216 21.2642 4.6841 7.08837 11.4165 -1.0516e-006 -1.37747e-006 25.059 1.84595 -1.20819 5.58932 5.14813 1.49565 3.25719 -0 0 -0 -12.8636 -8.25654 -1.87829 33.1295 32.0569 -21.1287 -2.3039 -3.0672 -126.94 -7.15681e-006 0.733928 -17.1283 4.77695 0.0337413 -0.00281895 21.1107 -33.8771 -27.147 7.03321 10.0376 -125.292 4.04707e-006 -2.64043 -9.72399 -5.43696 -0.677873 40.8943 11.5263 -17.6591 -75.1304 
-0.0432748 0.895844 0.005282 85.8281 -55.0313 83.545 15.5069 1.80149 -2.24259 24.4748 4.27134 9.29253 -3.93379 -11.1425 25.4125 1.46428e-005 -2.00317e-006 6.0571 -4.13408 -11.6188 -8.38346 -17.7506 -7.00246 20.8487 4.55309 7.01754 11.9031 7.48555e-008 -9.5633e-007 25.2628 1.87885 -1.32253 5.43064 5.26213 1.48851 3.1828 -0 0 -0 -12.9929 -8.1523 -1.87403 33.8886 32.4868 -22.006 -2.6496 -3.48289 -127.299 5.10791e-007 1.27108 -17.4342 4.81746 0.0512592 -0.00431943 20.7773 -33.9685 -27.4594 7.07759 10.0314 -125.481 -2.23938e-006 -2.67678 -9.84126 -5.35926 -0.619055 40.9323 11.5672 -17.6871 -74.9857 
-0.0417342 0.895885 0.00757 85.7747 -54.8442 83.5939 15.1799 1.88391 -2.17388 24.7142 4.13292 8.8997 -3.9049 -11.2242 25.6753 -9.23693e-006 5.59573e-006 6.16859 -3.95187 -11.5591 -8.13324 -18.2518 -6.99568 20.2699 4.49173 7.27009 13.1692 6.17734e-007 5.97608e-007 25.667 1.92243 -1.47778 5.27319 5.37727 1.45599 3.11306 -0 0 -0 -13.1417 -8.05836 -1.87456 34.6195 32.842 -22.8358 -2.8229 -3.66642 -127.635 -4.57863e-007 1.83404 -17.6787 4.85748 0.0809745 -0.00688087 20.4529 -34.0433 -27.7463 7.13359 10.0486 -125.651 -1.16529e-006 -2.75774 -9.95915 -5.28012 -0.55468 40.9752 11.5548 -17.6929 -74.8765 
-0.0399291 0.895792 0.010112 85.6502 -54.6341 83.576 14.7755 1.9506 -2.09092 25.0117 4.00246 8.50862 -3.8799 -11.3284 25.9522 2.50897e-006 -3.77078e-006 6.26579 -3.72739 -11.518 -7.8042 -18.7676 -6.91382 19.5072 4.52813 7.78222 14.678 -4.93763e-007 -1.51284e-006 26.2033 1.97363 -1.66579 5.12981 5.47905 1.42621 3.05427 -0 0 -0 -13.2864 -7.98119 -1.87792 35.2518 33.104 -23.5609 -2.86732 -3.68616 -127.92 4.31154e-006 2.53484 -17.8888 4.89323 0.0986047 -0.00844235 20.1879 -34.0898 -27.9852 7.13589 10.0089 -125.766 -7.93232e-006 -2.95726 -10.1128 -5.22137 -0.51637 41.0144 11.5158 -17.6804 -74.8002 
-0.0378766 0.895581 0.012901 85.4878 -54.3906 83.5134 14.3907 2.02038 -2.03022 25.2617 3.8921 8.18558 -3.86306 -11.4442 26.2051 1.13251e-005 -2.33844e-006 6.37216 -3.67459 -11.4796 -7.50225 -19.4359 -6.87175 18.7307 4.71383 8.44111 15.6757 2.00794e-006 2.18299e-006 26.7564 2.02319 -1.88097 5.0224 5.55943 1.40566 3.00224 -0 0 -0 -13.4144 -7.92104 -1.88247 35.7317 33.2935 -24.1367 -2.89014 -3.68633 -128.14 1.09156e-006 3.35708 -18.0535 4.92355 0.105306 -0.00907203 19.9895 -34.1045 -28.1783 7.06707 9.89209 -125.816 9.90532e-006 -3.23621 -10.2815 -5.18605 -0.482892 41.0433 11.437 -17.6828 -74.7655 
-0.0355576 0.895355 0.015923 85.3712 -54.1148 83.463 13.9675 2.13946 -1.98395 25.5141 3.80403 7.9137 -3.84533 -11.5579 26.4548 6.29235e-006 -1.70301e-006 6.47172 -3.87033 -11.3802 -7.22719 -20.2427 -6.89107 18.0225 4.98932 9.05861 15.9923 1.03912e-006 -1.58498e-006 27.214 2.06565 -2.05894 4.95982 5.61377 1.38128 2.96112 -0 0 -0 -13.5277 -7.88687 -1.89083 36.051 33.4366 -24.5258 -2.97265 -3.772 -128.286 -1.74409e-005 4.11875 -18.189 4.94364 0.114462 -0.00990047 19.85 -34.1012 -28.312 6.9906 9.78166 -125.819 -1.41735e-005 -3.4923 -10.4373 -5.17829 -0.451183 41.0628 11.3208 -17.7112 -74.7737 
-0.0329982 0.895164 0.019222 85.3623 -53.8198 83.4813 13.5238 2.34376 -1.97747 25.7608 3.74408 7.70621 -3.82649 -11.6691 26.7016 -2.21384e-006 6.2371e-008 6.56038 -4.22133 -11.1666 -6.93384 -21.0083 -6.91323 17.4025 5.26095 9.51336 15.8768 -7.54941e-007 1.25581e-006 27.6231 2.08898 -2.15274 4.92556 5.64856 1.35903 2.93721 -0 0 -0 -13.625 -7.88359 -1.90415 36.2238 33.5063 -24.6876 -3.1287 -3.95991 -128.362 -9.86472e-006 4.6125 -18.3177 4.94972 0.121034 -0.0104829 19.7741 -34.0896 -28.3687 6.96373 9.75333 -125.792 -1.13714e-005 -3.63247 -10.5674 -5.17619 -0.44244 41.0666 11.1795 -17.7442 -74.8104 
